<svg width="2181" height="966" viewBox="0 0 2181 966" fill="none" xmlns="http://www.w3.org/2000/svg">
<g clip-path="url(#clip0_151_54)">
<path d="M1473.17 540.633C1456.52 562.891 1429.95 577.255 1400.03 577.255C1349.55 577.255 1308.68 536.367 1308.68 485.873C1308.68 484.857 1308.68 483.784 1308.73 482.768H1415.38C1434.67 502.066 1453.94 521.335 1473.17 540.633Z" fill="#222155"/>
<path d="M1491.39 485.873C1491.39 506.39 1484.63 525.253 1473.26 540.546L1415.56 482.739H1491.33C1491.39 483.755 1491.39 484.829 1491.39 485.844V485.873Z" fill="#E31188"/>
<path d="M1249.09 648.034V647.889H1248.94V648.034C1195.99 700.994 1143.05 753.955 1090.1 806.915C1143.11 859.934 1196.08 912.982 1249.09 966C1302 912.865 1354.89 859.731 1407.81 806.596C1354.95 753.694 1302.09 700.791 1249.2 647.889C1249.14 647.947 1249.12 647.976 1249.06 648.034H1249.09Z" fill="#2AA5DD"/>
<path d="M1891 640.721C1783.08 749.138 1675.09 857.583 1567.08 966C1513.96 912.865 1460.93 859.731 1407.81 806.596C1462.87 751.314 1517.91 696.003 1572.97 640.721C1572.97 640.721 1572.95 640.702 1572.92 640.663L1572.97 640.605L1473.23 540.836C1484.6 525.543 1491.36 506.651 1491.36 486.163C1491.36 485.147 1491.36 484.074 1491.31 483.058H1733.41C1785.92 535.641 1838.49 588.167 1891 640.75V640.721Z" fill="#E31188"/>
<path d="M1248.94 483.029V647.889C1195.97 700.82 1143.05 753.81 1090.07 806.799L1090.01 806.654V719.422C1091.84 719.567 1093.73 719.625 1095.56 719.625C1146.04 719.625 1186.91 678.736 1186.91 628.242C1186.91 577.749 1146.04 536.86 1095.56 536.86C1093.73 536.86 1091.84 536.918 1090.01 537.063V483H1248.97L1248.94 483.029Z" fill="#222155"/>
<path d="M1572.92 640.663C1517.91 695.945 1462.82 751.198 1407.81 806.48L1249.2 647.772C1249.2 647.772 1249.14 647.83 1249.06 647.917L1090 806.48L930.081 647.772V319.896L1100.52 215.719L1249.06 317.791C1253.78 339.188 1336.89 491.067 1308.68 486.163C1308.68 536.657 1349.55 577.545 1400.03 577.545C1429.95 577.545 1456.52 563.21 1473.17 540.923C1506.45 574.15 1539.7 607.464 1572.92 640.692V640.663Z" fill="#222155"/>
<path d="M1491.31 483.029H1415.53L1345.35 412.918C1360.64 401.542 1379.52 394.781 1400.01 394.781C1449.47 394.781 1489.65 433.957 1491.28 483.029H1491.31Z" fill="#E31188"/>
<path d="M1415 483H1223C1224.72 454.403 1250.16 429.08 1288.76 413C1330.8 436.382 1372.8 459.705 1414.95 483H1415Z" fill="#222155"/>
<path d="M1091.5 159L571.5 654L908 822.5L1270 614H1598.5L1592 451.5L1314.5 379.5L1091.5 159Z" fill="#222155"/>
<path d="M1089.99 807.002L1090.07 806.915C1090.07 806.915 1090.01 806.857 1089.99 806.828V807.031V807.002Z" fill="#E31188"/>
<path d="M771.582 807.437L613.032 966.029C505.051 858.512 396.982 751.111 289 643.623L449.58 483.029H686.258C686.2 484.044 686.2 485.118 686.2 486.134C686.2 507.986 693.859 528.038 706.711 543.796L607.056 643.477C607.056 643.477 607.056 643.535 607.114 643.535L607.056 643.594C661.917 698.208 716.749 752.765 771.611 807.379L771.582 807.437Z" fill="#2AA5DD"/>
<path d="M931.175 647.888C931.175 647.888 931.088 647.975 931.03 648.033V647.888H930.885V648.033C877.765 701.168 824.673 754.274 771.552 807.408C824.702 860.282 877.852 913.155 931.001 966.029C983.977 913.039 1036.95 860.05 1089.96 807.031V806.828C1037.01 753.867 984.093 700.878 931.146 647.917L931.175 647.888Z" fill="#E31188"/>
<path d="M930.914 483.029V647.888L771.552 807.292C716.749 752.736 661.859 698.121 607.056 643.565L706.711 543.883C723.422 564.399 748.923 577.516 777.5 577.516C827.98 577.516 868.858 536.628 868.858 486.134C868.858 485.118 868.858 484.044 868.8 483.029H930.914Z" fill="#222155"/>
<path d="M1004.2 628.271C1004.2 676.937 1042.09 716.606 1089.99 719.45V806.683L931.175 647.772C931.175 647.772 931.117 647.83 931.03 647.917V483.058H1089.99V537.121C1042.09 539.965 1004.2 579.634 1004.2 628.3V628.271Z" fill="#222155"/>
<path d="M1090.01 537.092V719.422C1029.93 716.578 982.381 676.908 982.381 628.243C982.381 579.577 1029.9 539.907 1090.01 537.063V537.092Z" fill="#222155"/>
<path d="M1214.47 628.271C1214.47 678.765 1161.96 719.654 1097.12 719.654C1094.77 719.654 1092.34 719.595 1089.99 719.45V537.121C1092.34 536.976 1094.77 536.918 1097.12 536.918C1161.96 536.918 1214.47 577.806 1214.47 628.3V628.271Z" fill="#222155"/>
<path d="M835.175 415.269L767.433 483.029H686.229C687.854 433.957 728.035 394.781 777.5 394.781C799.346 394.781 819.393 402.442 835.146 415.298L835.175 415.269Z" fill="#2AA5DD"/>
<path d="M868.8 483.029H767.578L835.233 415.355C854.99 431.461 867.901 455.693 868.8 483.029Z" fill="#222155"/>
<path d="M868.887 486.134C868.887 536.628 828.009 577.516 777.529 577.516C748.981 577.516 723.48 564.399 706.74 543.883L767.578 483.029H868.8C868.858 484.044 868.858 485.118 868.858 486.134H868.887Z" fill="#222155"/>
<path d="M767.462 483.029L706.711 543.796C693.859 528.038 686.2 507.986 686.2 486.134C686.2 485.118 686.2 484.044 686.258 483.029H767.462Z" fill="#2AA5DD"/>
<path d="M1091.41 158.998C1090.94 158.533 1090.48 158.069 1089.99 157.576V160.391L1091.41 158.969V158.998Z" fill="#2AA5DD"/>
<path d="M1249.09 316.69V316.545C1249.09 316.545 1249 316.457 1248.94 316.399V316.545C1248.94 316.545 1249.03 316.632 1249.09 316.69Z" fill="#222155"/>
<path d="M1091.55 158.997L1091.49 158.939L1091.44 158.997L1091.49 159.056L1091.55 158.997Z" fill="#222155"/>
<path d="M1248.94 1.53809L1091.55 158.969C1144.01 211.436 1196.49 263.932 1248.94 316.399V1.53809Z" fill="#E31188"/>
<path d="M1733.41 483.029H1491.31C1489.68 433.957 1449.5 394.781 1400.03 394.781C1379.52 394.781 1360.67 401.542 1345.38 412.918H1345.32C1313.26 380.852 1281.17 348.756 1249.09 316.661V1.5381L1250.57 0.0581055C1411.46 161.058 1572.45 322.087 1733.41 483.029Z" fill="#E31188"/>
<path d="M1248.94 316.515V483H1089.99V421.624C1091.81 421.769 1093.7 421.827 1095.53 421.827C1146.01 421.827 1186.88 380.938 1186.88 330.445C1186.88 279.951 1146.01 239.062 1095.53 239.062C1093.7 239.062 1091.81 239.12 1089.99 239.265V160.478L1091.47 158.998C1143.98 211.523 1196.4 264.048 1248.91 316.486L1248.94 316.515Z" fill="#222155"/>
<path d="M1345.29 412.918C1323.85 429.024 1309.69 454.416 1308.76 483.029H1249.09V316.661C1281.14 348.756 1313.23 380.823 1345.32 412.918H1345.29Z" fill="#222155"/>
<path d="M1186.88 330.474C1186.88 380.968 1146.01 421.856 1095.53 421.856C1093.7 421.856 1091.81 421.798 1089.99 421.653V239.324C1091.81 239.179 1093.7 239.121 1095.53 239.121C1146.01 239.121 1186.88 280.009 1186.88 330.503V330.474Z" fill="#222155"/>
<path d="M1090.01 239.295V421.624C1042.12 418.78 1004.23 379.11 1004.23 330.445C1004.23 281.779 1042.12 242.11 1090.01 239.266V239.295Z" fill="#222155"/>
<path d="M930.914 1.53809V319.504L835.175 415.269C819.422 402.413 799.375 394.752 777.529 394.752C728.064 394.752 687.883 433.928 686.258 483H449.58L930.914 1.53809Z" fill="#2AA5DD"/>
<path d="M1089.99 157.576C1037.5 105.08 985.021 52.5833 932.539 0.0581055L931.059 1.5381V319.388L1090.01 160.391V157.576H1089.99Z" fill="#2AA5DD"/>
<path d="M930.914 319.649V483.029H868.8C867.93 455.693 854.99 431.461 835.233 415.356L930.914 319.649Z" fill="#222155"/>
<path d="M1004.2 330.474C1004.2 379.139 1042.09 418.809 1089.99 421.653V483.029H931.03V319.504L1089.99 160.507V239.295C1042.09 242.139 1004.2 281.808 1004.2 330.474Z" fill="#222155"/>
<path d="M771.581 807.293L613.032 966L289.87 642.752L932.452 0L1091.47 159.056L449.58 802.475" fill="#2AA5DD"/>
<path d="M1250.62 0L1892.5 641L1578 645.5L1248.52 316.388L1091.75 158.895L1250.62 0Z" fill="#E31188"/>
</g>
<defs>
<clipPath id="clip0_151_54">
<rect width="1602" height="966" fill="white" transform="translate(289)"/>
</clipPath>
</defs>
</svg>
